<?xml version="1.0" encoding="utf-8"?>
<!-- Generator: Adobe Illustrator 22.0.1, SVG Export Plug-In . SVG Version: 6.00 Build 0)  -->
<svg version="1.1" id="Laag_1" xmlns="http://www.w3.org/2000/svg" xmlns:xlink="http://www.w3.org/1999/xlink" x="0px" y="0px"
	 viewBox="0 0 137.3 142.4" style="enable-background:new 0 0 137.3 142.4;" xml:space="preserve">
<style type="text/css">
	.st0{fill:#BFDACE;stroke:#3A3433;stroke-width:1.414;stroke-miterlimit:10;}
	.st1{clip-path:url(#SVGID_2_);fill:#85603C;}
	.st2{clip-path:url(#SVGID_2_);fill:#F1D8CC;}
	.st3{clip-path:url(#SVGID_2_);fill:#BD9C69;}
	.st4{clip-path:url(#SVGID_2_);fill:#434345;}
	.st5{clip-path:url(#SVGID_2_);fill:none;stroke:#434345;stroke-width:0.5034;stroke-linecap:round;stroke-miterlimit:10;}
	
		.st6{clip-path:url(#SVGID_2_);fill:none;stroke:#BD9C69;stroke-width:0.6712;stroke-linecap:round;stroke-linejoin:round;stroke-miterlimit:10;}
	.st7{clip-path:url(#SVGID_2_);}
	.st8{fill:none;stroke:#434345;stroke-width:0.6712;stroke-linecap:round;stroke-miterlimit:10;}
	.st9{fill:#3A3433;}
	.st10{font-family:'JustAnotherHand-Regular';}
	.st11{font-size:24.4079px;}
</style>
<path class="st0" d="M55.5,131.3L10.3,86.1c-5-5-5-13.1,0-18.1l45.2-45.2c5-5,13.1-5,18.1,0l45.2,45.2c5,5,5,13.1,0,18.1l-45.2,45.2
	C68.6,136.3,60.5,136.3,55.5,131.3z"/>
<g>
	<defs>
		<path id="SVGID_1_" d="M55.6,130.5L10.8,85.6c-5-5-5-13,0-17.9l44.9-44.9c5-5,13-5,17.9,0l44.9,44.9c5,5,5,13,0,17.9l-44.9,44.9
			C68.6,135.4,60.6,135.4,55.6,130.5z"/>
	</defs>
	<clipPath id="SVGID_2_">
		<use xlink:href="#SVGID_1_"  style="overflow:visible;"/>
	</clipPath>
	<path class="st1" d="M38,135.7c0,0-1.1-6.4,3.5-7.3c0,0-4.8-4-3.6-9.5c0,0-3.5-8.9,1.7-11.8c0,0-4.6-5.9,1.1-12.1
		c0,0-0.6-7.2,2.5-10.7c0,0-6.4-5.4,1.4-11.7c0,0-15.9-9.9-10-16.1s16.7,5.2,16.7,5.2s5.9-11.5,11.3-2.5s0.8,1.4,0.8,1.4
		s6.9-12.1,9-2.5c0,0,4.9-2.1,6.8,2.4c0,0,10.5-7.3,15.4-3.2s-8,14.5-10.3,15.6c0,0,6.5,4.1,2.7,11.4c0,0,2.5,6.4,0.6,9.1
		c0,0,6,1.9-0.2,13c0,0,4.8,3.2-0.5,14.3c0,0,4.1,1.7,1,8.9c0,0,3.2,1,1.1,6H38z"/>
	<ellipse transform="matrix(0.7842 -0.6206 0.6206 0.7842 -21.4402 67.2972)" class="st2" cx="86" cy="64.5" rx="6.7" ry="3"/>
	<ellipse transform="matrix(0.6086 -0.7935 0.7935 0.6086 -33.5608 59.4008)" class="st2" cx="43.4" cy="63.7" rx="3" ry="7.4"/>
	<ellipse class="st3" cx="65.9" cy="96" rx="6.8" ry="9.9"/>
	<ellipse class="st4" cx="65.9" cy="93.5" rx="3" ry="1.6"/>
	<path class="st5" d="M61.7,98.7c0,0,3.5,5.6,8.6,0"/>
	<path class="st5" d="M65.9,95.1c0,0,1.8,1.6,0,6.1"/>
	<path class="st6" d="M59.9,70.6c-4.2,3.5-3.3,8.6,3.9,4.9c0,0-0.5,5.9,4.2,1.3c2,2.9,3.5,1,3.8-2.2"/>
	<line class="st1" x1="51.3" y1="86.2" x2="51.3" y2="89.1"/>
	<g class="st7">
		<path class="st8" d="M48.6,82.4c0,0,2.8,3.3,6.8,0"/>
		<line class="st8" x1="49.2" y1="82.9" x2="47.6" y2="84.5"/>
		<line class="st8" x1="50.9" y1="83.7" x2="50.7" y2="86"/>
		<line class="st8" x1="53.2" y1="83.7" x2="53.7" y2="86.2"/>
		<line class="st8" x1="54.7" y1="82.9" x2="56.6" y2="84.5"/>
	</g>
	<g class="st7">
		<path class="st8" d="M74.4,82.4c0,0,2.8,3.3,6.8,0"/>
		<line class="st8" x1="75" y1="82.9" x2="73.4" y2="84.5"/>
		<line class="st8" x1="76.6" y1="83.7" x2="76.5" y2="86"/>
		<line class="st8" x1="78.9" y1="83.7" x2="79.4" y2="86.2"/>
		<line class="st8" x1="80.4" y1="82.9" x2="82.4" y2="84.5"/>
	</g>
</g>
<text transform="matrix(0.7071 0.7071 -0.7071 0.7071 72.2114 17.5369)" class="st9 st10 st11">Rent a friend</text>
</svg>
